<svg width="34" height="32" viewBox="0 0 34 32" fill="none" xmlns="http://www.w3.org/2000/svg">
<path d="M4.45831 31.0462H30.0279C32.4693 31.0462 33.9994 29.2883 33.9994 27.0748C33.9994 26.4075 33.8366 25.7402 33.4785 25.1216L20.6691 2.25393C19.9369 0.935595 18.5858 0.235596 17.2512 0.235596C15.9004 0.235596 14.5496 0.935595 13.8171 2.25393L1.02414 25.1379C0.682269 25.7564 0.487061 26.4075 0.487061 27.0748C0.487061 29.2883 2.01685 31.0462 4.45831 31.0462ZM17.2512 20.1737C16.405 20.1737 15.9491 19.6856 15.9329 18.8229L15.705 9.96872C15.6887 9.10601 16.3235 8.48768 17.235 8.48768C18.1302 8.48768 18.7975 9.12247 18.7812 9.98497L18.5533 18.8229C18.5371 19.7018 18.065 20.1737 17.2512 20.1737ZM17.2512 25.6262C16.291 25.6262 15.4446 24.845 15.4446 23.8848C15.4446 22.9081 16.2748 22.1268 17.2512 22.1268C18.2441 22.1268 19.0741 22.8918 19.0741 23.8848C19.0741 24.8612 18.2279 25.6262 17.2512 25.6262Z" fill="white"/>
</svg>
