<svg width="16" height="18" viewBox="0 0 16 18" fill="none" xmlns="http://www.w3.org/2000/svg">
<path fill-rule="evenodd" clip-rule="evenodd" d="M13.5893 6.33023C13.5893 7.37684 13.8659 7.99373 14.4746 8.70462C14.9359 9.22834 15.0834 9.90062 15.0834 10.63C15.0834 11.3585 14.844 12.0501 14.3645 12.6116C13.7367 13.2847 12.8513 13.7144 11.9477 13.7891C10.6383 13.9007 9.32807 13.9947 8.00044 13.9947C6.67197 13.9947 5.36256 13.9385 4.05315 13.7891C3.14873 13.7144 2.26337 13.2847 1.63641 12.6116C1.15687 12.0501 0.916687 11.3585 0.916687 10.63C0.916687 9.90062 1.06494 9.22834 1.52543 8.70462C2.15322 7.99373 2.41162 7.37684 2.41162 6.33023V5.97521C2.41162 4.57358 2.76113 3.65706 3.48085 2.75984C4.55091 1.45137 6.26615 0.666626 7.96317 0.666626H8.0377C9.77116 0.666626 11.5419 1.48914 12.5937 2.85385C13.2762 3.7326 13.5893 4.6105 13.5893 5.97521V6.33023ZM5.56141 15.7173C5.56141 15.2977 5.94653 15.1055 6.30266 15.0232C6.71926 14.9351 9.25774 14.9351 9.67434 15.0232C10.0305 15.1055 10.4156 15.2977 10.4156 15.7173C10.3949 16.1169 10.1605 16.471 9.83667 16.696C9.41676 17.0233 8.92397 17.2306 8.40882 17.3053C8.12391 17.3422 7.84398 17.3431 7.56901 17.3053C7.05303 17.2306 6.56024 17.0233 6.14116 16.6951C5.8165 16.471 5.58211 16.1169 5.56141 15.7173Z" fill="#2B2B2B"/>
</svg>
