<svg width="14" height="14" viewBox="0 0 14 14" fill="none" xmlns="http://www.w3.org/2000/svg">
<path d="M7.00015 10.1118V10.8883C7.42944 10.8883 7.77671 11.2383 7.77671 11.6649C7.77671 12.0942 7.42671 12.4415 7.00015 12.4415C6.57085 12.4415 6.22358 12.0915 6.22358 11.6649C6.22358 11.2356 6.57358 10.8883 7.00015 10.8883V10.1118V9.33521C5.71226 9.33521 4.66772 10.3797 4.66772 11.6676C4.66772 12.9555 5.71226 14 7.00015 14C8.28804 14 9.33257 12.9555 9.33257 11.6676C9.33257 10.3797 8.28804 9.33521 7.00015 9.33521V10.1118Z" fill="white"/>
<path d="M3.11177 0.776563V1.55313C3.54107 1.55313 3.88833 1.90312 3.88833 2.32969C3.88833 2.75898 3.53833 3.10625 3.11177 3.10625C2.68247 3.10625 2.33521 2.75625 2.33521 2.32969C2.33521 1.90039 2.68521 1.55313 3.11177 1.55313V0.776563V0C1.82114 0 0.779346 1.04453 0.776611 2.33242C0.776611 3.62031 1.82114 4.66484 3.10904 4.66484C4.39693 4.66484 5.44146 3.62031 5.44146 2.33242C5.44146 1.04453 4.39693 0 3.10904 0V0.776563H3.11177Z" fill="white"/>
<path d="M10.8883 0.776563V1.55313C11.3176 1.55313 11.6649 1.90312 11.6649 2.32969C11.6649 2.75898 11.3149 3.10625 10.8883 3.10625C10.459 3.10625 10.1118 2.75625 10.1118 2.32969C10.1118 1.90039 10.4618 1.55313 10.8883 1.55313V0.776563V0C9.60044 0 8.55591 1.04453 8.55591 2.33242C8.55591 3.62031 9.60044 4.66484 10.8883 4.66484C12.1762 4.66484 13.2208 3.62031 13.2208 2.33242C13.2208 1.04453 12.1762 0 10.8883 0V0.776563Z" fill="white"/>
<path d="M2.33252 3.88826V5.44412C2.33252 6.73201 3.37705 7.77654 4.66494 7.77654H9.33253C10.6204 7.77654 11.665 6.73201 11.665 5.44412V3.88826C11.665 3.45896 11.3177 3.11169 10.8884 3.11169C10.4591 3.11169 10.1118 3.45896 10.1118 3.88826V5.44412C10.1118 5.87341 9.76183 6.22068 9.33526 6.22068H4.66768C4.23838 6.22068 3.89112 5.87068 3.89112 5.44412V3.88826C3.89112 3.45896 3.54385 3.11169 3.11455 3.11169C2.68525 3.11169 2.33252 3.45896 2.33252 3.88826Z" fill="white"/>
<path d="M6.22339 6.99995V10.1117C6.22339 10.541 6.57065 10.8882 6.99995 10.8882C7.42925 10.8882 7.77651 10.541 7.77651 10.1117V6.99995C7.77651 6.57065 7.42925 6.22339 6.99995 6.22339C6.57065 6.22339 6.22339 6.57065 6.22339 6.99995Z" fill="white"/>
</svg>
