<svg width="20" height="20" viewBox="0 0 20 20" fill="none" xmlns="http://www.w3.org/2000/svg">
<path d="M19.3671 4.98291V15.0165H0.63269V4.98291H19.3671Z" fill="#58935E"/>
<path d="M16.9418 6.21094H3.01914C3.01914 6.91406 2.46094 7.43672 1.79688 7.45625V12.5437C2.46094 12.5633 3.01914 13.125 3.01914 13.8281H16.9418C16.9418 13.125 17.4609 12.5633 18.125 12.5437V7.45625C17.4609 7.43672 16.9418 6.91406 16.9418 6.21094Z" fill="#7FD695"/>
<path d="M16.1327 9.20215C16.2905 9.20215 16.4447 9.24893 16.5759 9.33658C16.7071 9.42422 16.8093 9.5488 16.8697 9.69455C16.9301 9.84031 16.9459 10.0007 16.9151 10.1554C16.8843 10.3101 16.8083 10.4523 16.6968 10.5638C16.5852 10.6754 16.4431 10.7514 16.2884 10.7821C16.1336 10.8129 15.9732 10.7971 15.8275 10.7367C15.6817 10.6764 15.5572 10.5741 15.4695 10.443C15.3819 10.3118 15.3351 10.1576 15.3351 9.9998C15.3351 9.89505 15.3557 9.79131 15.3958 9.69452C15.4358 9.59774 15.4946 9.50979 15.5687 9.43572C15.6427 9.36164 15.7307 9.30289 15.8275 9.26281C15.9242 9.22274 16.028 9.20212 16.1327 9.20215Z" fill="#61B257"/>
<path d="M9.99996 6.2511C10.7415 6.2511 11.4664 6.47099 12.0829 6.88296C12.6995 7.29493 13.18 7.88048 13.4638 8.56556C13.7476 9.25064 13.8218 10.0045 13.6771 10.7318C13.5325 11.459 13.1754 12.1271 12.6511 12.6514C12.1267 13.1758 11.4587 13.5328 10.7314 13.6775C10.0041 13.8222 9.25027 13.7479 8.56519 13.4642C7.88011 13.1804 7.29456 12.6998 6.88259 12.0833C6.47062 11.4667 6.25073 10.7418 6.25073 10.0003C6.25072 9.50797 6.34769 9.02043 6.5361 8.56554C6.72452 8.11066 7.00068 7.69735 7.34883 7.3492C7.69698 7.00105 8.1103 6.72488 8.56518 6.53647C9.02006 6.34806 9.5076 6.25109 9.99996 6.2511ZM12.723 10.0003C12.723 9.46175 12.5633 8.93528 12.2641 8.48748C11.9649 8.03967 11.5396 7.69065 11.042 7.48455C10.5445 7.27845 9.99694 7.22453 9.46872 7.32959C8.9405 7.43466 8.45529 7.69401 8.07447 8.07484C7.69364 8.45566 7.4343 8.94086 7.32923 9.46908C7.22416 9.9973 7.27808 10.5448 7.48419 11.0424C7.69029 11.54 8.03931 11.9652 8.48711 12.2645C8.93491 12.5637 9.46139 12.7234 9.99996 12.7234C10.7222 12.7234 11.4148 12.4365 11.9254 11.9258C12.4361 11.4151 12.723 10.7225 12.723 10.0003Z" fill="#61B257"/>
<path d="M3.86734 9.20215C4.02511 9.20207 4.17937 9.24879 4.3106 9.33639C4.44182 9.42399 4.54412 9.54854 4.60455 9.69428C4.66499 9.84003 4.68084 10.0004 4.6501 10.1552C4.61937 10.3099 4.54343 10.4521 4.43189 10.5637C4.32035 10.6753 4.17823 10.7513 4.02349 10.7821C3.86874 10.8129 3.70834 10.7971 3.56257 10.7368C3.41679 10.6764 3.29219 10.5742 3.20453 10.443C3.11686 10.3118 3.07007 10.1576 3.07007 9.99981C3.07004 9.78831 3.15401 9.58547 3.30352 9.43588C3.45304 9.2863 3.65584 9.20222 3.86734 9.20215Z" fill="#61B257"/>
<path d="M2.96875 12.5437V7.45625C3.63281 7.43672 4.19102 6.91406 4.19102 6.21094H3.01914C3.01914 6.91406 2.46094 7.43672 1.79688 7.45625V12.5437C2.46094 12.5633 3.01914 13.125 3.01914 13.8281H4.19102C4.19102 13.125 3.63281 12.5633 2.96875 12.5437Z" fill="#6DB57C"/>
<path d="M10.0001 9.73808C9.90924 9.73808 9.82038 9.71112 9.7448 9.66062C9.66921 9.61012 9.61031 9.53833 9.57552 9.45435C9.54073 9.37037 9.53163 9.27796 9.54936 9.1888C9.5671 9.09965 9.61087 9.01775 9.67515 8.95347C9.73943 8.8892 9.82132 8.84542 9.91048 8.82769C9.99963 8.80995 10.092 8.81906 10.176 8.85384C10.26 8.88863 10.3318 8.94754 10.3823 9.02312C10.4328 9.0987 10.4597 9.18756 10.4597 9.27847C10.4597 9.34063 10.4844 9.40024 10.5284 9.44419C10.5723 9.48815 10.632 9.51284 10.6941 9.51284C10.7563 9.51284 10.8159 9.48815 10.8598 9.44419C10.9038 9.40024 10.9285 9.34063 10.9285 9.27847C10.9282 9.0731 10.86 8.8736 10.7345 8.71107C10.609 8.54855 10.4332 8.43215 10.2345 8.38003V8.16675C10.2345 8.10459 10.2098 8.04497 10.1659 8.00102C10.1219 7.95707 10.0623 7.93237 10.0001 7.93237C9.93798 7.93237 9.87837 7.95707 9.83441 8.00102C9.79046 8.04497 9.76577 8.10459 9.76577 8.16675V8.38003C9.5473 8.437 9.35708 8.57163 9.2307 8.75872C9.10433 8.94582 9.05047 9.17256 9.07921 9.3965C9.10794 9.62044 9.21729 9.82623 9.38681 9.97536C9.55632 10.1245 9.77437 10.2067 10.0001 10.2067C10.091 10.2067 10.1799 10.2337 10.2555 10.2842C10.3311 10.3347 10.39 10.4064 10.4248 10.4904C10.4595 10.5744 10.4687 10.6668 10.4509 10.756C10.4332 10.8451 10.3894 10.927 10.3251 10.9913C10.2609 11.0556 10.179 11.0994 10.0898 11.1171C10.0007 11.1348 9.90824 11.1257 9.82426 11.0909C9.74027 11.0562 9.66849 10.9972 9.61799 10.9217C9.56749 10.8461 9.54053 10.7572 9.54053 10.6663C9.54053 10.6042 9.51584 10.5445 9.47189 10.5006C9.42793 10.4566 9.36832 10.4319 9.30616 10.4319C9.244 10.4319 9.18439 10.4566 9.14043 10.5006C9.09648 10.5445 9.07179 10.6042 9.07179 10.6663C9.07202 10.8717 9.14023 11.0712 9.26577 11.2337C9.39131 11.3963 9.56712 11.5126 9.76577 11.5648V11.833C9.76577 11.8951 9.79046 11.9547 9.83441 11.9987C9.87837 12.0426 9.93798 12.0673 10.0001 12.0673C10.0623 12.0673 10.1219 12.0426 10.1659 11.9987C10.2098 11.9547 10.2345 11.8951 10.2345 11.833V11.5646C10.453 11.5077 10.6432 11.373 10.7696 11.1859C10.8959 10.9988 10.9498 10.7721 10.9211 10.5482C10.8923 10.3242 10.783 10.1184 10.6135 9.96931C10.444 9.82017 10.2259 9.73793 10.0001 9.73796V9.73808Z" fill="#EADF53"/>
</svg>
