<svg width="20" height="20" viewBox="0 0 20 20" fill="none" xmlns="http://www.w3.org/2000/svg">
<path d="M0 6.77769C0 3.74898 2.45523 1.29382 5.48387 1.29382C6.82715 1.29382 8.05672 1.77753 9.00973 2.57968C9.58254 3.06183 10.4175 3.06183 10.9903 2.57968C11.9432 1.7775 13.1728 1.29382 14.5161 1.29382C17.5448 1.29382 20 3.74898 20 6.77769V6.6164C20 11.9346 13.5323 16.7313 10.9998 18.4056C10.3932 18.8066 9.60672 18.8066 9.0002 18.4056C6.46773 16.7313 0 11.9346 0 6.6164" fill="#FF6464"/>
<path d="M0 6.77799C0 6.75478 0.00320313 6.7324 0.00347656 6.70928C0.00300781 6.67838 0 6.64768 0 6.6167V6.77799Z" fill="#D2555A"/>
<path d="M4.4864 7.1378C4.48616 7.16276 4.48394 7.18694 4.48394 7.21198V7.03788C4.48394 7.07132 4.48608 7.10444 4.4864 7.1378C4.50765 4.52507 5.63605 2.32058 7.18976 1.56979C6.65269 1.39378 6.08112 1.2937 5.48503 1.2937C2.47956 1.2937 0.0418262 3.71218 0.00463867 6.70886C0.079209 11.9901 6.48366 16.7409 9.0014 18.4055C9.25976 18.5763 9.55097 18.6698 9.84683 18.6951C7.76933 16.3606 4.53085 11.9538 4.4864 7.1378Z" fill="#D2555A"/>
<path d="M17.5598 7.26516C18.2511 7.26516 18.8115 6.70474 18.8115 6.01344C18.8115 5.32213 18.2511 4.76172 17.5598 4.76172C16.8685 4.76172 16.3081 5.32213 16.3081 6.01344C16.3081 6.70474 16.8685 7.26516 17.5598 7.26516Z" fill="#FF8B8B"/>
<path d="M15.9548 4.4088C16.3869 4.4088 16.7372 4.05854 16.7372 3.62646C16.7372 3.19438 16.3869 2.84412 15.9548 2.84412C15.5228 2.84412 15.1725 3.19438 15.1725 3.62646C15.1725 4.05854 15.5228 4.4088 15.9548 4.4088Z" fill="#FFC1C1"/>
</svg>
