<svg width="20" height="20" viewBox="0 0 20 20" fill="none" xmlns="http://www.w3.org/2000/svg">
<g clip-path="url(#clip0_1116_194)">
<path d="M5.91504 8.64661L1.54736 16.8755L5.5136 16.509L7.43325 19.9994L11.8009 11.7706L5.91504 8.64661Z" fill="#E95454"/>
<path d="M6.41528 17.6036C6.53784 17.3403 6.40965 17.0258 6.15328 16.8895L5.90192 16.7557C5.65055 16.6125 5.55488 16.2942 5.69182 16.0366C5.83063 15.7746 6.15704 15.6746 6.41903 15.8134L7.12937 16.1904C7.34884 16.3067 7.62397 16.2223 7.73715 16.0016L7.75466 15.9678C7.88472 15.7596 7.80781 15.4845 7.59146 15.37L5.46671 14.2426C5.20784 14.1051 5.08091 13.7918 5.20159 13.5279C5.33478 13.2472 5.67118 13.1365 5.94193 13.2803L7.91286 14.3264C8.13234 14.4427 8.40746 14.3583 8.52377 14.1388L8.53502 14.1101L8.53815 14.1038C8.66383 13.8737 8.57567 13.5848 8.34368 13.4616L7.23817 12.8751C6.9793 12.7376 6.85236 12.4243 6.97492 12.1573C7.10686 11.8797 7.44451 11.7659 7.71527 11.9097L8.93646 12.5581C9.16469 12.6794 9.43732 12.5781 9.5555 12.348C9.55738 12.3449 9.55738 12.3449 9.55863 12.3417C9.5605 12.3386 9.5605 12.3386 9.56176 12.3355C9.68619 12.1085 9.61741 11.8259 9.38855 11.7052L8.07106 11.0061C7.81531 10.8704 7.68838 10.5572 7.80906 10.2933C7.94225 10.0125 8.27865 9.90186 8.54941 10.0457L11.7997 11.7709L7.43201 19.9997L6.22832 17.8118C6.30586 17.7593 6.37339 17.6943 6.41528 17.6036Z" fill="#ED6362"/>
<path d="M14.0852 8.64661L18.4529 16.8755L14.4867 16.509L12.567 19.9994L8.19934 11.7706L14.0852 8.64661Z" fill="#ED6362"/>
<path d="M13.585 17.6038C13.4624 17.3406 13.5906 17.026 13.847 16.8897L14.0983 16.7559C14.3497 16.6127 14.4454 16.2945 14.3084 16.0368C14.1696 15.7748 13.8432 15.6748 13.5812 15.8136L12.8709 16.1907C12.6514 16.307 12.3763 16.2225 12.2631 16.0018L12.2456 15.9681C12.1155 15.7598 12.1924 15.4847 12.4088 15.3703L14.5342 14.2422C14.793 14.1047 14.92 13.7914 14.7993 13.5275C14.6661 13.2468 14.3297 13.1361 14.0589 13.2799L12.088 14.326C11.8685 14.4423 11.5934 14.3579 11.4771 14.1384L11.4659 14.1097L11.4627 14.1034C11.337 13.8733 11.4252 13.5844 11.6572 13.4613L12.7627 12.8747C13.0216 12.7372 13.1485 12.4239 13.026 12.1569C12.894 11.8793 12.5564 11.7655 12.2856 11.9093L11.0632 12.559C10.8349 12.6803 10.5623 12.579 10.4441 12.3489C10.4423 12.3457 10.4423 12.3457 10.441 12.3426C10.4391 12.3395 10.4391 12.3395 10.4379 12.3364C10.3134 12.1094 10.3822 11.8267 10.6111 11.7061L11.9286 11.007C12.1843 10.8713 12.3113 10.558 12.1906 10.2941C12.0574 10.0134 11.721 9.90271 11.4502 10.0465L8.19995 11.7717L12.5676 20.0006L13.7713 17.8127C13.6944 17.7595 13.6269 17.6945 13.585 17.6038Z" fill="#E95454"/>
<path d="M9.99994 14.5956C14.0304 14.5956 17.2977 11.3283 17.2977 7.2978C17.2977 3.26733 14.0304 0 9.99994 0C5.96948 0 2.70215 3.26733 2.70215 7.2978C2.70215 11.3283 5.96948 14.5956 9.99994 14.5956Z" fill="#FFCC5B"/>
<path d="M10.9898 6.46026H6.3651C6.00555 6.46026 5.71041 6.16512 5.71041 5.80557L5.71542 5.76055V5.75055C5.71041 5.371 6.01993 5.06085 6.40011 5.06085H9.60536C10.0299 5.06085 10.4051 4.74633 10.4301 4.32113C10.4501 3.87655 10.0956 3.50137 9.65039 3.50137H6.25504C5.88049 3.50137 5.60036 3.18685 5.60536 2.81167C5.60536 2.80667 5.60536 2.80667 5.60536 2.80167C5.60536 2.79666 5.60536 2.79666 5.60536 2.79166C5.60036 2.41711 5.87987 2.10196 6.25504 2.10196H9.80796C10.2275 2.10196 10.6027 1.78744 10.6277 1.36724C10.6477 0.917659 10.2932 0.547485 9.84798 0.547485H7.24613C4.59301 1.64112 2.72339 4.24985 2.72339 7.29752C2.72339 10.3452 4.59302 12.9533 7.24676 14.0457H10.5502C10.9698 14.0457 11.3449 13.7312 11.3699 13.311C11.39 12.8614 11.0354 12.4918 10.5902 12.4918L6.83219 12.4912C6.38886 12.4912 6.03181 12.1204 6.05558 11.6715C6.07746 11.2513 6.45514 10.9355 6.87596 10.9355H8.33289C8.75184 10.9236 9.09012 10.5803 9.09012 10.1582C9.09012 9.72866 8.74058 9.3785 8.31038 9.3785H6.10185C5.7423 9.3785 5.44717 9.08399 5.45217 8.72382V8.66879C5.42716 8.31425 5.71229 8.01411 6.06683 8.01411H10.9447C11.3693 8.01411 11.7445 7.69959 11.7695 7.27939C11.7895 6.83043 11.4343 6.46026 10.9898 6.46026Z" fill="#FDBC4B"/>
<path d="M10.0001 12.5061C7.12749 12.5061 4.79077 10.1688 4.79077 7.29683C4.79077 4.42485 7.12749 2.08813 10.0001 2.08813C12.8727 2.08813 15.2094 4.42548 15.2094 7.29745C15.2094 10.1694 12.8727 12.5061 10.0001 12.5061Z" fill="#FFDB70"/>
<path opacity="0.2" d="M15.2091 7.29795C15.2091 4.52665 13.0319 2.25996 10.2987 2.10364H9.81348C9.49333 2.10364 9.20757 2.34375 9.18819 2.6639C9.17318 3.00656 9.44331 3.28919 9.78284 3.28919L12.6492 3.28982C12.9875 3.28982 13.2595 3.57245 13.2413 3.91511C13.2245 4.23589 12.9368 4.47663 12.6154 4.47663H11.5043C11.1847 4.486 10.9265 4.74738 10.9265 5.0694C10.9265 5.39706 11.1935 5.66406 11.5212 5.66406H13.2057C13.4802 5.66406 13.7047 5.88916 13.7009 6.16304V6.20431C13.7197 6.47506 13.5027 6.70329 13.232 6.70329H9.51209C9.18819 6.70329 8.90243 6.94341 8.88304 7.26356C8.86804 7.60622 9.13816 7.88885 9.4777 7.88885H13.0043C13.2789 7.88885 13.5033 8.11396 13.5033 8.38783L13.4996 8.42223V8.42973C13.5033 8.71924 13.267 8.9556 12.9775 8.9556H10.5326C10.2087 8.9556 9.92291 9.19571 9.90352 9.51962C9.88851 9.85852 10.1586 10.1449 10.4982 10.1449H13.0875C13.3733 10.1449 13.5865 10.385 13.5827 10.6708C13.5827 10.6745 13.5827 10.6745 13.5827 10.6783C13.5827 10.682 13.5827 10.682 13.5827 10.6858C13.5865 10.9715 13.3733 11.2117 13.0875 11.2117H10.3781C10.058 11.2117 9.77221 11.4518 9.75283 11.7719C9.73782 12.1152 10.0079 12.3972 10.3475 12.3972H11.0622C13.4277 11.9045 15.2091 9.80537 15.2091 7.29795Z" fill="white"/>
<path d="M13.6366 6.14336H11.1029L10.3194 3.73348C10.2187 3.42396 9.78038 3.42396 9.6797 3.73348L8.89684 6.14336H6.36315C6.03737 6.14336 5.90168 6.56043 6.16556 6.75177L8.21527 8.24122L7.4324 10.6511C7.33173 10.9606 7.68627 11.2182 7.95014 11.0269L9.99985 9.53745L12.0496 11.0269C12.3134 11.2182 12.668 10.9606 12.5673 10.6511L11.7844 8.24122L13.8342 6.75177C14.0974 6.56043 13.9623 6.14336 13.6366 6.14336Z" fill="#EC9922"/>
</g>
<defs>
<clipPath id="clip0_1116_194">
<rect width="20" height="20" fill="white"/>
</clipPath>
</defs>
</svg>
