<svg width="10" height="9" viewBox="0 0 10 9" fill="none" xmlns="http://www.w3.org/2000/svg">
<path d="M7.46612 5.46675C7.3582 5.57133 7.30862 5.72258 7.3332 5.87091L7.70362 7.92091C7.73487 8.09466 7.66153 8.2705 7.51612 8.37092C7.37362 8.47508 7.18403 8.48758 7.02862 8.40425L5.1832 7.44175C5.11903 7.40758 5.04778 7.38925 4.97487 7.38717H4.86195C4.82278 7.393 4.78445 7.4055 4.74945 7.42466L2.90362 8.39175C2.81237 8.43758 2.70903 8.45383 2.60778 8.43758C2.36112 8.39092 2.19653 8.15592 2.23695 7.908L2.60778 5.858C2.63237 5.70842 2.58278 5.55633 2.47487 5.45008L0.970284 3.99175C0.84445 3.86966 0.8007 3.68633 0.8582 3.52091C0.914034 3.35591 1.05653 3.2355 1.22862 3.20841L3.29945 2.908C3.45695 2.89175 3.59528 2.79591 3.66612 2.65425L4.57862 0.783415C4.60028 0.741748 4.6282 0.703415 4.66195 0.670915L4.69945 0.641748C4.71903 0.620081 4.74153 0.602165 4.76653 0.587581L4.81195 0.570915L4.88278 0.541748H5.0582C5.21487 0.557998 5.35278 0.651748 5.42487 0.791748L6.34945 2.65425C6.41612 2.7905 6.5457 2.88508 6.69528 2.908L8.76612 3.20841C8.94112 3.23341 9.08737 3.35425 9.14528 3.52091C9.19987 3.688 9.15278 3.87133 9.02445 3.99175L7.46612 5.46675Z" fill="#FFCB55"/>
</svg>
